{"accessors" : [{"bufferView" : 0, "byteOffset" : 0, "componentType" : 5123, "count" : 87234, "type" : "SCALAR", "max" : [47209], "min" : [0]}, {"bufferView" : 1, "byteOffset" : 0, "componentType" : 5126, "count" : 47210, "type" : "VEC3", "max" : [0.31978386640548706, 1.0688962936401367, 0.9267680644989014], "min" : [-0.31894126534461975, 0.004606783390045166, -0.945446252822876], "name" : "POSITION"}, {"bufferView" : 1, "byteOffset" : 12, "componentType" : 5126, "count" : 47210, "type" : "VEC3", "max" : [0.9997954964637756, 1.0000044107437134, 0.9999468922615051], "min" : [-0.9998072981834412, -1.0000044107437134, -0.9996634125709534], "name" : "NORMAL"}, {"bufferView" : 1, "byteOffset" : 24, "componentType" : 5126, "count" : 47210, "type" : "VEC2", "max" : [0.9972131848335266, 1], "min" : [-5.098922173374376E-09, -1.1920928955078125E-07], "name" : "TEXCOORD_0"}, {"bufferView" : 0, "byteOffset" : 174468, "componentType" : 5123, "count" : 732, "type" : "SCALAR", "max" : [710], "min" : [0]}, {"bufferView" : 2, "byteOffset" : 0, "componentType" : 5126, "count" : 711, "type" : "VEC3", "max" : [0.3003115952014923, 0.27579987049102783, 0.06647485494613647], "min" : [0.20958472788333893, 0.14361286163330078, -0.06521109491586685], "name" : "POSITION"}, {"bufferView" : 2, "byteOffset" : 12, "componentType" : 5126, "count" : 711, "type" : "VEC3", "max" : [-0.7993510961532593, 0.5889450311660767, 0.4357198476791382], "min" : [-0.9998072981834412, -0.3308447301387787, -0.3036787211894989], "name" : "NORMAL"}, {"bufferView" : 2, "byteOffset" : 24, "componentType" : 5126, "count" : 711, "type" : "VEC2", "max" : [0.3595876097679138, 0.6056784987449646], "min" : [0.23312367498874664, 0.38471007347106934], "name" : "TEXCOORD_0"}, {"bufferView" : 0, "byteOffset" : 175932, "componentType" : 5123, "count" : 18432, "type" : "SCALAR", "max" : [10688], "min" : [0]}, {"bufferView" : 3, "byteOffset" : 0, "componentType" : 5126, "count" : 10689, "type" : "VEC3", "max" : [-0.22565466165542603, 0.8170665502548218, 0.2916852533817291], "min" : [-0.3169746696949005, 0.6343032717704773, -0.33871737122535706], "name" : "POSITION"}, {"bufferView" : 3, "byteOffset" : 12, "componentType" : 5126, "count" : 10689, "type" : "VEC3", "max" : [0.9997526407241821, 1.0000044107437134, 0.998500645160675], "min" : [-0.9998072981834412, -1.0000044107437134, -0.998500645160675], "name" : "NORMAL"}, {"bufferView" : 3, "byteOffset" : 24, "componentType" : 5126, "count" : 10689, "type" : "VEC2", "max" : [0.917315661907196, 1], "min" : [1.1662333321282858E-08, 0.07980495691299438], "name" : "TEXCOORD_0"}, {"bufferView" : 0, "byteOffset" : 212796, "componentType" : 5123, "count" : 72432, "type" : "SCALAR", "max" : [48550], "min" : [0]}, {"bufferView" : 4, "byteOffset" : 0, "componentType" : 5126, "count" : 48551, "type" : "VEC3", "max" : [0.14437896013259888, 0.8660047650337219, 0.8572338819503784], "min" : [-0.18999595940113068, 0.3130199909210205, -0.6399151086807251], "name" : "POSITION"}, {"bufferView" : 4, "byteOffset" : 12, "componentType" : 5126, "count" : 48551, "type" : "VEC3", "max" : [0.9997954964637756, 1.0000044107437134, 0.9999468922615051], "min" : [-0.9998072981834412, -1.0000044107437134, -0.9996634125709534], "name" : "NORMAL"}, {"bufferView" : 4, "byteOffset" : 24, "componentType" : 5126, "count" : 48551, "type" : "VEC2", "max" : [0.9972131848335266, 1], "min" : [1.1662333321282858E-08, 0.03882819414138794], "name" : "TEXCOORD_0"}, {"bufferView" : 0, "byteOffset" : 357660, "componentType" : 5123, "count" : 107922, "type" : "SCALAR", "max" : [60376], "min" : [0]}, {"bufferView" : 5, "byteOffset" : 0, "componentType" : 5126, "count" : 60377, "type" : "VEC3", "max" : [0.18800126016139984, 0.8129621744155884, 0.8897812962532043], "min" : [-0.17095504701137543, 0.04510948061943054, -0.9893060326576233], "name" : "POSITION"}, {"bufferView" : 5, "byteOffset" : 12, "componentType" : 5126, "count" : 60377, "type" : "VEC3", "max" : [0.9997969269752502, 1.0000044107437134, 0.9999468922615051], "min" : [-0.9998072981834412, -1.0000044107437134, -0.9996634125709534], "name" : "NORMAL"}, {"bufferView" : 5, "byteOffset" : 24, "componentType" : 5126, "count" : 60377, "type" : "VEC2", "max" : [1, 1], "min" : [-1.4482785637426332E-08, -1.1920928955078125E-07], "name" : "TEXCOORD_0"}, {"bufferView" : 0, "byteOffset" : 573504, "componentType" : 5123, "count" : 38958, "type" : "SCALAR", "max" : [37581], "min" : [0]}, {"bufferView" : 6, "byteOffset" : 0, "componentType" : 5126, "count" : 37582, "type" : "VEC3", "max" : [0.2651526927947998, 1.6762046813964844, 0.8980368375778198], "min" : [-0.18199372291564941, -0.400481641292572, -0.9226189255714417], "name" : "POSITION"}, {"bufferView" : 6, "byteOffset" : 12, "componentType" : 5126, "count" : 37582, "type" : "VEC3", "max" : [0.9997954964637756, 1.0000044107437134, 0.9999468922615051], "min" : [-0.9998072981834412, -1.0000044107437134, -0.9996634125709534], "name" : "NORMAL"}, {"bufferView" : 6, "byteOffset" : 24, "componentType" : 5126, "count" : 37582, "type" : "VEC2", "max" : [0.9972131848335266, 1], "min" : [1.1662333321282858E-08, 0.03882819414138794], "name" : "TEXCOORD_0"}, {"bufferView" : 0, "byteOffset" : 651420, "componentType" : 5123, "count" : 17808, "type" : "SCALAR", "max" : [9856], "min" : [0]}, {"bufferView" : 7, "byteOffset" : 0, "componentType" : 5126, "count" : 9857, "type" : "VEC3", "max" : [-0.2508092522621155, 0.5676814317703247, 0.024657178670167923], "min" : [-0.28623589873313904, 0.5108206272125244, -0.06808774173259735], "name" : "POSITION"}, {"bufferView" : 7, "byteOffset" : 12, "componentType" : 5126, "count" : 9857, "type" : "VEC3", "max" : [0.9997526407241821, 1.0000044107437134, 0.998500645160675], "min" : [-0.9998072981834412, -0.9946991801261902, -0.998500645160675], "name" : "NORMAL"}, {"bufferView" : 7, "byteOffset" : 24, "componentType" : 5126, "count" : 9857, "type" : "VEC2", "max" : [0.917315661907196, 1], "min" : [1.1662333321282858E-08, 0.07980495691299438], "name" : "TEXCOORD_0"}, {"bufferView" : 0, "byteOffset" : 687036, "componentType" : 5123, "count" : 786, "type" : "SCALAR", "max" : [756], "min" : [0]}, {"bufferView" : 8, "byteOffset" : 0, "componentType" : 5126, "count" : 757, "type" : "VEC3", "max" : [-0.27270156145095825, 0.6676803231239319, 0.026941822841763496], "min" : [-0.3352295756340027, 0.5853954553604126, -0.06893699616193771], "name" : "POSITION"}, {"bufferView" : 8, "byteOffset" : 12, "componentType" : 5126, "count" : 757, "type" : "VEC3", "max" : [-0.7960034012794495, 0.5889450311660767, 0.5224311947822571], "min" : [-0.9998072981834412, -0.36152222752571106, -0.3036787211894989], "name" : "NORMAL"}, {"bufferView" : 8, "byteOffset" : 24, "componentType" : 5126, "count" : 757, "type" : "VEC2", "max" : [0.36646997928619385, 0.6056784987449646], "min" : [0.23312367498874664, 0.3846172094345093], "name" : "TEXCOORD_0"}, {"bufferView" : 0, "byteOffset" : 688608, "componentType" : 5123, "count" : 17940, "type" : "SCALAR", "max" : [15649], "min" : [0]}, {"bufferView" : 9, "byteOffset" : 0, "componentType" : 5126, "count" : 15650, "type" : "VEC3", "max" : [0.49004697799682617, 1.9006510972976685, 1.2114399671554565], "min" : [0.34944653511047363, -0.5839110016822815, -1.1009540557861328], "name" : "POSITION"}, {"bufferView" : 9, "byteOffset" : 12, "componentType" : 5126, "count" : 15650, "type" : "VEC3", "max" : [0.9997526407241821, 0.9991682171821594, 0.998500645160675], "min" : [-0.9998072981834412, -1.0000044107437134, -0.998500645160675], "name" : "NORMAL"}, {"bufferView" : 9, "byteOffset" : 24, "componentType" : 5126, "count" : 15650, "type" : "VEC2", "max" : [0.917315661907196, 1], "min" : [1.1662333321282858E-08, 0.07980495691299438], "name" : "TEXCOORD_0"}], "asset" : {"generator" : "Aspose.3D 25.6.0", "version" : "2.0"}, "buffers" : [{"uri" : "buffer.bin", "byteLength" : 8128816}], "bufferViews" : [{"buffer" : 0, "byteOffset" : 0, "byteLength" : 724488, "target" : 34963}, {"buffer" : 0, "byteOffset" : 724492, "byteLength" : 1510720, "byteStride" : 32, "target" : 34962}, {"buffer" : 0, "byteOffset" : 2235216, "byteLength" : 22752, "byteStride" : 32, "target" : 34962}, {"buffer" : 0, "byteOffset" : 2257972, "byteLength" : 342048, "byteStride" : 32, "target" : 34962}, {"buffer" : 0, "byteOffset" : 2600024, "byteLength" : 1553632, "byteStride" : 32, "target" : 34962}, {"buffer" : 0, "byteOffset" : 4153660, "byteLength" : 1932064, "byteStride" : 32, "target" : 34962}, {"buffer" : 0, "byteOffset" : 6085728, "byteLength" : 1202624, "byteStride" : 32, "target" : 34962}, {"buffer" : 0, "byteOffset" : 7288356, "byteLength" : 315424, "byteStride" : 32, "target" : 34962}, {"buffer" : 0, "byteOffset" : 7603784, "byteLength" : 24224, "byteStride" : 32, "target" : 34962}, {"buffer" : 0, "byteOffset" : 7628012, "byteLength" : 500800, "byteStride" : 32, "target" : 34962}], "images" : [{"uri" : "C:\\Users\\Luisa\\Desktop\\BUNNY\\CUERPO Base Color.png"}], "materials" : [{"name" : "CUERPO", "pbrMetallicRoughness" : {"baseColorFactor" : [1, 1, 1, 1], "baseColorTexture" : {"index" : 0, "texCoord" : 0}, "metallicFactor" : 1, "roughnessFactor" : 1}, "emissiveFactor" : [1, 1, 1], "alphaMode" : "OPAQUE", "doubleSided" : false}], "meshes" : [{"primitives" : [{"attributes" : {"POSITION" : 1, "NORMAL" : 2, "TEXCOORD_0" : 3}, "indices" : 0, "material" : 0, "mode" : 4}, {"attributes" : {"POSITION" : 5, "NORMAL" : 6, "TEXCOORD_0" : 7}, "indices" : 4, "material" : 0, "mode" : 4}, {"attributes" : {"POSITION" : 9, "NORMAL" : 10, "TEXCOORD_0" : 11}, "indices" : 8, "material" : 0, "mode" : 4}, {"attributes" : {"POSITION" : 13, "NORMAL" : 14, "TEXCOORD_0" : 15}, "indices" : 12, "material" : 0, "mode" : 4}, {"attributes" : {"POSITION" : 17, "NORMAL" : 18, "TEXCOORD_0" : 19}, "indices" : 16, "material" : 0, "mode" : 4}, {"attributes" : {"POSITION" : 21, "NORMAL" : 22, "TEXCOORD_0" : 23}, "indices" : 20, "material" : 0, "mode" : 4}, {"attributes" : {"POSITION" : 25, "NORMAL" : 26, "TEXCOORD_0" : 27}, "indices" : 24, "material" : 0, "mode" : 4}, {"attributes" : {"POSITION" : 29, "NORMAL" : 30, "TEXCOORD_0" : 31}, "indices" : 28, "material" : 0, "mode" : 4}, {"attributes" : {"POSITION" : 33, "NORMAL" : 34, "TEXCOORD_0" : 35}, "indices" : 32, "material" : 0, "mode" : 4}], "name" : "Cube.005"}], "nodes" : [{"mesh" : 0, "name" : "Cube.002"}], "samplers" : [{"magFilter" : 9729, "minFilter" : 9729, "wrapS" : 10497, "wrapT" : 10497}], "scene" : 0, "scenes" : [{"nodes" : [0]}], "textures" : [{"sampler" : 0, "source" : 0, "name" : "base_color_texture"}]}